<svg width="199" height="128" viewBox="0 0 199 128" fill="none" xmlns="http://www.w3.org/2000/svg">
<g clip-path="url(#clip0_64_2)">
<g filter="url(#filter0_d_64_2)">
<path d="M58.7772 69.3073C58.7772 96.9215 36.3915 119.307 8.77723 119.307C-18.837 119.307 82.2772 37.9215 82.2772 10.3073C82.2772 -17.307 -18.837 19.3073 8.77723 19.3073C36.3915 19.3073 58.7772 41.693 58.7772 69.3073Z" fill="url(#paint0_linear_64_2)"/>
</g>
<path d="M74.432 78.096C72.064 78.096 69.936 77.552 68.048 76.464C66.16 75.344 64.672 73.808 63.584 71.856C62.528 69.872 62 67.6 62 65.04C62 62.352 62.544 60.032 63.632 58.08C64.72 56.128 66.208 54.624 68.096 53.568C69.984 52.512 72.096 51.984 74.432 51.984C76.768 51.984 78.864 52.512 80.72 53.568C82.608 54.624 84.096 56.128 85.184 58.08C86.304 60 86.864 62.288 86.864 64.944C86.864 67.6 86.32 69.92 85.232 71.904C84.144 73.856 82.656 75.376 80.768 76.464C78.912 77.552 76.8 78.096 74.432 78.096ZM74.432 74.256C76.96 74.256 78.928 73.408 80.336 71.712C81.744 69.984 82.448 67.76 82.448 65.04C82.448 63.376 82.096 61.856 81.392 60.48C80.688 59.072 79.728 57.952 78.512 57.12C77.328 56.256 75.968 55.824 74.432 55.824C71.904 55.824 69.936 56.656 68.528 58.32C67.12 59.984 66.416 62.192 66.416 64.944C66.416 66.608 66.768 68.16 67.472 69.6C68.176 71.008 69.12 72.144 70.304 73.008C71.52 73.84 72.896 74.256 74.432 74.256ZM100.192 78.096C98.72 78.096 97.392 77.824 96.208 77.28C95.024 76.704 94.08 75.792 93.376 74.544C92.704 73.296 92.368 71.68 92.368 69.696V42H96.688V69.264C96.688 70.992 97.04 72.272 97.744 73.104C98.48 73.936 99.488 74.352 100.768 74.352C101.376 74.352 101.968 74.288 102.544 74.16C103.152 74 103.664 73.824 104.08 73.632L105.136 77.136C104.56 77.392 103.84 77.616 102.976 77.808C102.144 78 101.216 78.096 100.192 78.096ZM118.05 78.096C115.97 78.096 114.082 77.568 112.386 76.512C110.69 75.456 109.33 73.968 108.306 72.048C107.314 70.096 106.818 67.808 106.818 65.184C106.818 62.688 107.314 60.448 108.306 58.464C109.33 56.48 110.722 54.912 112.482 53.76C114.274 52.576 116.322 51.984 118.626 51.984C120.066 51.984 121.362 52.24 122.514 52.752C123.698 53.232 124.722 53.84 125.586 54.576V52.56H129.522V71.472C129.522 72.688 129.81 73.488 130.386 73.872C130.994 74.224 131.65 74.4 132.354 74.4L131.442 77.76C128.37 77.76 126.514 76.512 125.874 74.016C125.138 75.04 124.13 75.984 122.85 76.848C121.602 77.68 120.002 78.096 118.05 78.096ZM119.01 74.256C120.226 74.256 121.378 73.968 122.466 73.392C123.554 72.784 124.466 72.032 125.202 71.136V57.744C124.338 57.136 123.378 56.656 122.322 56.304C121.298 55.92 120.21 55.728 119.058 55.728C117.522 55.728 116.162 56.128 114.978 56.928C113.826 57.696 112.914 58.784 112.242 60.192C111.57 61.568 111.234 63.184 111.234 65.04C111.234 66.832 111.57 68.432 112.242 69.84C112.914 71.216 113.842 72.304 115.026 73.104C116.21 73.872 117.538 74.256 119.01 74.256ZM138.123 77.52V52.56H142.299V57.984C142.715 56.928 143.275 55.952 143.979 55.056C144.683 54.128 145.563 53.392 146.619 52.848C147.675 52.272 148.907 51.984 150.315 51.984C150.795 51.984 151.275 52.016 151.755 52.08C152.235 52.112 152.635 52.176 152.955 52.272L151.659 56.736C151.051 56.48 150.331 56.352 149.499 56.352C148.315 56.352 147.179 56.688 146.091 57.36C145.035 58.032 144.155 59.072 143.451 60.48C142.779 61.888 142.443 63.68 142.443 65.856V77.52H138.123ZM165.394 78.096C163.314 78.096 161.426 77.568 159.73 76.512C158.034 75.456 156.674 73.968 155.65 72.048C154.658 70.096 154.162 67.808 154.162 65.184C154.162 62.688 154.658 60.448 155.65 58.464C156.674 56.48 158.066 54.912 159.826 53.76C161.618 52.576 163.666 51.984 165.97 51.984C167.41 51.984 168.706 52.24 169.858 52.752C171.042 53.232 172.066 53.84 172.93 54.576V52.56H176.866V71.472C176.866 72.688 177.154 73.488 177.73 73.872C178.338 74.224 178.994 74.4 179.698 74.4L178.786 77.76C175.714 77.76 173.858 76.512 173.218 74.016C172.482 75.04 171.474 75.984 170.194 76.848C168.946 77.68 167.346 78.096 165.394 78.096ZM166.354 74.256C167.57 74.256 168.722 73.968 169.81 73.392C170.898 72.784 171.81 72.032 172.546 71.136V57.744C171.682 57.136 170.722 56.656 169.666 56.304C168.642 55.92 167.554 55.728 166.402 55.728C164.866 55.728 163.506 56.128 162.322 56.928C161.17 57.696 160.258 58.784 159.586 60.192C158.914 61.568 158.578 63.184 158.578 65.04C158.578 66.832 158.914 68.432 159.586 69.84C160.258 71.216 161.186 72.304 162.37 73.104C163.554 73.872 164.882 74.256 166.354 74.256Z" fill="white"/>
</g>
<defs>
<filter id="filter0_d_64_2" x="0" y="0" width="86.2772" height="127.307" filterUnits="userSpaceOnUse" color-interpolation-filters="sRGB">
<feFlood flood-opacity="0" result="BackgroundImageFix"/>
<feColorMatrix in="SourceAlpha" type="matrix" values="0 0 0 0 0 0 0 0 0 0 0 0 0 0 0 0 0 0 127 0" result="hardAlpha"/>
<feOffset dy="4"/>
<feGaussianBlur stdDeviation="2"/>
<feComposite in2="hardAlpha" operator="out"/>
<feColorMatrix type="matrix" values="0 0 0 0 0 0 0 0 0 0 0 0 0 0 0 0 0 0 0.25 0"/>
<feBlend mode="normal" in2="BackgroundImageFix" result="effect1_dropShadow_64_2"/>
<feBlend mode="normal" in="SourceGraphic" in2="effect1_dropShadow_64_2" result="shape"/>
</filter>
<linearGradient id="paint0_linear_64_2" x1="100.277" y1="87.8073" x2="0.277218" y2="34.8073" gradientUnits="userSpaceOnUse">
<stop stop-color="#B132FF"/>
<stop offset="0.817708" stop-color="#FD810F"/>
</linearGradient>
<clipPath id="clip0_64_2">
<rect width="199" height="128" fill="white"/>
</clipPath>
</defs>
</svg>
