<svg width="159" height="128" viewBox="0 0 159 128" fill="none" xmlns="http://www.w3.org/2000/svg">
<g filter="url(#filter0_d_10_303)">
<path d="M58.7772 69.3073C58.7772 96.9215 36.3915 119.307 8.77723 119.307C-18.837 119.307 82.2772 37.9215 82.2772 10.3073C82.2772 -17.307 -18.837 19.3073 8.77723 19.3073C36.3915 19.3073 58.7772 41.693 58.7772 69.3073Z" fill="url(#paint0_linear_10_303)"/>
</g>
<path d="M68.97 73.36C67.49 73.36 66.16 73.02 64.98 72.34C63.8 71.64 62.87 70.68 62.19 69.46C61.53 68.22 61.2 66.8 61.2 65.2C61.2 63.52 61.54 62.07 62.22 60.85C62.9 59.63 63.83 58.69 65.01 58.03C66.19 57.37 67.51 57.04 68.97 57.04C70.43 57.04 71.74 57.37 72.9 58.03C74.08 58.69 75.01 59.63 75.69 60.85C76.39 62.05 76.74 63.48 76.74 65.14C76.74 66.8 76.4 68.25 75.72 69.49C75.04 70.71 74.11 71.66 72.93 72.34C71.77 73.02 70.45 73.36 68.97 73.36ZM68.97 70.96C70.55 70.96 71.78 70.43 72.66 69.37C73.54 68.29 73.98 66.9 73.98 65.2C73.98 64.16 73.76 63.21 73.32 62.35C72.88 61.47 72.28 60.77 71.52 60.25C70.78 59.71 69.93 59.44 68.97 59.44C67.39 59.44 66.16 59.96 65.28 61C64.4 62.04 63.96 63.42 63.96 65.14C63.96 66.18 64.18 67.15 64.62 68.05C65.06 68.93 65.65 69.64 66.39 70.18C67.15 70.7 68.01 70.96 68.97 70.96ZM85.0697 73.36C84.1497 73.36 83.3197 73.19 82.5797 72.85C81.8397 72.49 81.2497 71.92 80.8097 71.14C80.3897 70.36 80.1797 69.35 80.1797 68.11V50.8H82.8797V67.84C82.8797 68.92 83.0997 69.72 83.5397 70.24C83.9997 70.76 84.6297 71.02 85.4297 71.02C85.8097 71.02 86.1797 70.98 86.5397 70.9C86.9197 70.8 87.2397 70.69 87.4997 70.57L88.1597 72.76C87.7997 72.92 87.3497 73.06 86.8097 73.18C86.2897 73.3 85.7097 73.36 85.0697 73.36ZM96.2313 73.36C94.9313 73.36 93.7513 73.03 92.6913 72.37C91.6313 71.71 90.7813 70.78 90.1413 69.58C89.5213 68.36 89.2113 66.93 89.2113 65.29C89.2113 63.73 89.5213 62.33 90.1413 61.09C90.7813 59.85 91.6513 58.87 92.7513 58.15C93.8713 57.41 95.1513 57.04 96.5913 57.04C97.4913 57.04 98.3013 57.2 99.0213 57.52C99.7613 57.82 100.401 58.2 100.941 58.66V57.4H103.401V69.22C103.401 69.98 103.581 70.48 103.941 70.72C104.321 70.94 104.731 71.05 105.171 71.05L104.601 73.15C102.681 73.15 101.521 72.37 101.121 70.81C100.661 71.45 100.031 72.04 99.2313 72.58C98.4513 73.1 97.4513 73.36 96.2313 73.36ZM96.8313 70.96C97.5913 70.96 98.3113 70.78 98.9913 70.42C99.6713 70.04 100.241 69.57 100.701 69.01V60.64C100.161 60.26 99.5613 59.96 98.9013 59.74C98.2613 59.5 97.5813 59.38 96.8613 59.38C95.9013 59.38 95.0513 59.63 94.3113 60.13C93.5913 60.61 93.0213 61.29 92.6013 62.17C92.1813 63.03 91.9713 64.04 91.9713 65.2C91.9713 66.32 92.1813 67.32 92.6013 68.2C93.0213 69.06 93.6013 69.74 94.3413 70.24C95.0813 70.72 95.9113 70.96 96.8313 70.96ZM108.777 73V57.4H111.387V60.79C111.647 60.13 111.997 59.52 112.437 58.96C112.877 58.38 113.427 57.92 114.087 57.58C114.747 57.22 115.517 57.04 116.397 57.04C116.697 57.04 116.997 57.06 117.297 57.1C117.597 57.12 117.847 57.16 118.047 57.22L117.237 60.01C116.857 59.85 116.407 59.77 115.887 59.77C115.147 59.77 114.437 59.98 113.757 60.4C113.097 60.82 112.547 61.47 112.107 62.35C111.687 63.23 111.477 64.35 111.477 65.71V73H108.777ZM125.821 73.36C124.521 73.36 123.341 73.03 122.281 72.37C121.221 71.71 120.371 70.78 119.731 69.58C119.111 68.36 118.801 66.93 118.801 65.29C118.801 63.73 119.111 62.33 119.731 61.09C120.371 59.85 121.241 58.87 122.341 58.15C123.461 57.41 124.741 57.04 126.181 57.04C127.081 57.04 127.891 57.2 128.611 57.52C129.351 57.82 129.991 58.2 130.531 58.66V57.4H132.991V69.22C132.991 69.98 133.171 70.48 133.531 70.72C133.911 70.94 134.321 71.05 134.761 71.05L134.191 73.15C132.271 73.15 131.111 72.37 130.711 70.81C130.251 71.45 129.621 72.04 128.821 72.58C128.041 73.1 127.041 73.36 125.821 73.36ZM126.421 70.96C127.181 70.96 127.901 70.78 128.581 70.42C129.261 70.04 129.831 69.57 130.291 69.01V60.64C129.751 60.26 129.151 59.96 128.491 59.74C127.851 59.5 127.171 59.38 126.451 59.38C125.491 59.38 124.641 59.63 123.901 60.13C123.181 60.61 122.611 61.29 122.191 62.17C121.771 63.03 121.561 64.04 121.561 65.2C121.561 66.32 121.771 67.32 122.191 68.2C122.611 69.06 123.191 69.74 123.931 70.24C124.671 70.72 125.501 70.96 126.421 70.96Z" fill="white"/>
<defs>
<filter id="filter0_d_10_303" x="0" y="0" width="86.2772" height="127.307" filterUnits="userSpaceOnUse" color-interpolation-filters="sRGB">
<feFlood flood-opacity="0" result="BackgroundImageFix"/>
<feColorMatrix in="SourceAlpha" type="matrix" values="0 0 0 0 0 0 0 0 0 0 0 0 0 0 0 0 0 0 127 0" result="hardAlpha"/>
<feOffset dy="4"/>
<feGaussianBlur stdDeviation="2"/>
<feComposite in2="hardAlpha" operator="out"/>
<feColorMatrix type="matrix" values="0 0 0 0 0 0 0 0 0 0 0 0 0 0 0 0 0 0 0.25 0"/>
<feBlend mode="normal" in2="BackgroundImageFix" result="effect1_dropShadow_10_303"/>
<feBlend mode="normal" in="SourceGraphic" in2="effect1_dropShadow_10_303" result="shape"/>
</filter>
<linearGradient id="paint0_linear_10_303" x1="100.277" y1="87.8073" x2="0.277222" y2="34.8073" gradientUnits="userSpaceOnUse">
<stop stop-color="#B132FF"/>
<stop offset="0.817708" stop-color="#FD810F"/>
</linearGradient>
</defs>
</svg>
